<svg xmlns="http://www.w3.org/2000/svg" style="display:none;">

    <!-- majesticons-key-line -->
    <symbol id="key" viewBox="0 0 24 24">
        <path fill="none" stroke="currentColor" stroke-linecap="round" stroke-linejoin="round" stroke-width="2" d="M15 15a6 6 0 1 0-5.743-4.257L9 11l-5.707 5.707a1 1 0 0 0-.293.707V20a1 1 0 0 0 1 1h2a1 1 0 0 0 1-1 1 1 0 0 1 1-1 1 1 0 0 0 1-1 1 1 0 0 1 1-1h.586a1 1 0 0 0 .707-.293L13 15l.257-.257A6 6 0 0 0 15 15m2-6a2 2 0 0 0-2-2"/>
    </symbol>
    <!-- material-symbols-light-close-rounded -->
    <symbol id="close-light" viewBox="0 0 24 24">
        <path fill="currentColor" d="m12 12.708-5.246 5.246q-.14.14-.344.15t-.364-.15-.16-.354.16-.354L11.292 12 6.046 6.754q-.14-.14-.15-.344t.15-.364.354-.16.354.16L12 11.292l5.246-5.246q.14-.14.345-.15.203-.01.363.15t.16.354-.16.354L12.708 12l5.246 5.246q.14.14.15.345.01.203-.15.363t-.354.16-.354-.16z"/>
    </symbol>
    <!-- material-symbols-light-delete-outline -->
    <symbol id="delete" viewBox="0 0 24 24">
        <path fill="currentColor" d="M7.616 20q-.672 0-1.144-.472T6 18.385V6H5V5h4v-.77h6V5h4v1h-1v12.385q0 .69-.462 1.153T16.384 20zM17 6H7v12.385q0 .269.173.442t.443.173h8.769q.23 0 .423-.192t.192-.424zM9.808 17h1V8h-1zm3.384 0h1V8h-1zM7 6v13z"/>
    </symbol>
    <!-- mdi-light-play -->
    <symbol id="play" viewBox="0 0 24 24">
        <path fill="currentColor" d="M18.4 12.5 9 18.38 8 19V6zm-1.9 0L9 7.8v9.4z"/>
    </symbol>
    <!-- mynaui-chevron-double-left -->
    <symbol id="double-chevron-left" viewBox="0 0 24 24">
        <path fill="none" stroke="currentColor" stroke-linecap="round" stroke-linejoin="round" stroke-width="1.5" d="m12 6-6 6 6 6m6-12-6 6 6 6"/>
    </symbol>
    <!-- si-json-line -->
    <symbol id="json" viewBox="0 0 24 24">
        <path fill="none" stroke="currentColor" stroke-linecap="round" stroke-linejoin="round" stroke-width="1.5" d="M9 16v-1m3 1v-1m3 1v-1M6.835 4q-.747.022-1.297.242a1.86 1.86 0 0 0-.857.66q-.285.438-.285 1.164V9.23q0 1.12-.594 1.802-.593.66-1.802.88v.131q1.23.22 1.802.901.594.66.594 1.78v3.231q0 .704.285 1.143.286.461.835.66.55.219 1.32.241M17.164 4q.747.022 1.297.242.55.219.857.66.285.438.285 1.164V9.23q0 1.12.594 1.802.593.66 1.802.88v.131q-1.23.22-1.802.901-.594.66-.594 1.78v3.231q0 .704-.285 1.143-.286.461-.835.66-.55.219-1.32.241"/>
    </symbol>
    <!-- system-uicons-versions -->
    <symbol id="version" viewBox="0 0 24 24">
        <path fill="none" stroke="currentColor" stroke-linecap="round" stroke-linejoin="round" d="m2.5 10.5 8 4 8.017-4M2.5 14.5l8 4 8.017-4M2.5 6.657l8.008 3.843 8.009-3.843L10.508 2.5z"/>
    </symbol>
    <!-- weather-night -->
    <symbol id="dark" viewBox="0 0 24 24">
        <path fill="currentColor" d="m17.75 4.09-2.53 1.94.91 3.06-2.63-1.81-2.63 1.81.91-3.06-2.53-1.94L12.44 4l1.06-3 1.06 3zm3.5 6.91-1.64 1.25.59 1.98-1.7-1.17-1.7 1.17.59-1.98L15.75 11l2.06-.05L18.5 9l.69 1.95zm-2.28 4.95c.83-.08 1.72 1.1 1.19 1.85-.32.45-.66.87-1.08 1.27C15.17 23 8.84 23 4.94 19.07c-3.91-3.9-3.91-10.24 0-14.14.4-.4.82-.76 1.27-1.08.75-.53 1.93.36 1.85 1.19-.27 2.86.69 5.83 2.89 8.02a9.96 9.96 0 0 0 8.02 2.89m-1.64 2.02a12.08 12.08 0 0 1-7.8-3.47c-2.17-2.19-3.33-5-3.49-7.82-2.81 3.14-2.7 7.96.31 10.98 3.02 3.01 7.84 3.12 10.98.31"/>
    </symbol>
    <!-- white-balance-sunny -->
    <symbol id="light" viewBox="0 0 24 24">
        <path fill="currentColor" d="m3.55 19.09 1.41 1.41 1.8-1.79-1.42-1.42M12 6c-3.31 0-6 2.69-6 6s2.69 6 6 6 6-2.69 6-6c0-3.32-2.69-6-6-6m8 7h3v-2h-3m-2.76 7.71 1.8 1.79 1.41-1.41-1.79-1.8M20.45 5l-1.41-1.4-1.8 1.79 1.42 1.42M13 1h-2v3h2M6.76 5.39 4.96 3.6 3.55 5l1.79 1.81zM1 13h3v-2H1m12 9h-2v3h2"/>
    </symbol>
    <!-- fluent-card-ui-20-regular -->
    <symbol id="ui" viewBox="0 0 20 20">
        <path fill="currentColor" d="M4.5 4A2.5 2.5 0 0 0 2 6.5v7A2.5 2.5 0 0 0 4.5 16h11a2.5 2.5 0 0 0 2.5-2.5v-7A2.5 2.5 0 0 0 15.5 4zM3 6.5A1.5 1.5 0 0 1 4.5 5h11A1.5 1.5 0 0 1 17 6.5v7a1.5 1.5 0 0 1-1.5 1.5h-11A1.5 1.5 0 0 1 3 13.5zM4.5 6a.5.5 0 0 0 0 1h5a.5.5 0 0 0 0-1zm0 2a.5.5 0 0 0 0 1h8a.5.5 0 0 0 0-1zm.5 3a1 1 0 0 0-1 1v1a1 1 0 0 0 1 1h4a1 1 0 0 0 1-1v-1a1 1 0 0 0-1-1z"/>
    </symbol>
    <!-- hugeicons-job-link -->
    <symbol id="job" viewBox="0 0 24 24">
        <g fill="none" stroke="currentColor" stroke-linecap="round" stroke-linejoin="round" stroke-width="1.5" color="currentColor"><path d="M11.007 21.5H9.605c-3.585 0-5.377 0-6.491-1.135S2 17.403 2 13.75s0-5.48 1.114-6.615S6.02 6 9.605 6h3.803c3.585 0 5.378 0 6.492 1.135.857.873 1.054 2.156 1.1 4.365V13"/><path d="M19 18.5h-3m0 3a3 3 0 1 1 0-6m3 6a3 3 0 1 0 0-6M16 6l-.1-.31c-.495-1.54-.742-2.31-1.331-2.75-.59-.44-1.372-.44-2.938-.44h-.263c-1.565 0-2.348 0-2.937.44-.59.44-.837 1.21-1.332 2.75L7 6"/></g>
    </symbol>
    <!-- icon-park-outline-log -->
    <symbol id="log" viewBox="0 0 48 48">
        <g fill="none" stroke="currentColor" stroke-linejoin="round" stroke-width="4"><path d="M13 10h28v34H13z"/><path stroke-linecap="round" d="M35 10V4H8a1 1 0 0 0-1 1v33h6m8-16h12m-12 8h12"/></g>
    </symbol>
    <!-- loading-two-tone-loop -->
    <symbol id="loading" viewBox="0 0 24 24">
        <g fill="none" stroke="currentColor" stroke-linecap="round" stroke-linejoin="round" stroke-width="2"><path stroke-dasharray="16" stroke-dashoffset="16" d="M12 3c4.97 0 9 4.03 9 9"><animate fill="freeze" attributeName="stroke-dashoffset" dur="0.3s" values="16;0"/><animateTransform attributeName="transform" dur="1.5s" repeatCount="indefinite" type="rotate" values="0 12 12;360 12 12"/></path><path stroke-dasharray="64" stroke-dashoffset="64" stroke-opacity="0.3" d="M12 3c4.97 0 9 4.03 9 9c0 4.97 -4.03 9 -9 9c-4.97 0 -9 -4.03 -9 -9c0 -4.97 4.03 -9 9 -9Z"><animate fill="freeze" attributeName="stroke-dashoffset" dur="1.2s" values="64;0"/></path></g>
    </symbol>
    <!-- si-chevron-right-alt-line -->
    <symbol id="chevron-right" viewBox="0 0 24 24">
        <path fill="none" stroke="currentColor" stroke-linecap="round" stroke-linejoin="round" stroke-width="2" d="M9 5l7 7-7 7"/>
    </symbol>
    <!-- iconoir:plus -->
    <symbol id="plus" viewBox="0 0 24 24">
        <path fill="none" stroke="currentColor" stroke-linecap="round" stroke-linejoin="round" stroke-width="1.5" d="M12 4.5v15m7.5-7.5h-15"/>
    </symbol>
    <!-- qlementine-icons:user-16 -->
    <symbol id="user" viewBox="0 0 24 24">
        <path fill="currentColor" d="M11 7c0 1.66-1.34 3-3 3S5 8.66 5 7s1.34-3 3-3s3 1.34 3 3"/><path fill="currentColor" fill-rule="evenodd" d="M16 8c0 4.42-3.58 8-8 8s-8-3.58-8-8s3.58-8 8-8s8 3.58 8 8M4 13.75C4.16 13.484 5.71 11 7.99 11c2.27 0 3.83 2.49 3.99 2.75A6.98 6.98 0 0 0 14.99 8c0-3.87-3.13-7-7-7s-7 3.13-7 7c0 2.38 1.19 4.49 3.01 5.75" clip-rule="evenodd"/>
    </symbol>
    <!-- carbon:two-factor-authentication -->
    <symbol id="setup" viewBox="0 0 32 32">
        <path fill="currentColor" d="m11 23.18l-2-2.001l-1.411 1.41L11 26l6-6l-1.41-1.41zM28 30h-4v-2h4V16h-4V8a4.005 4.005 0 0 0-4-4V2a6.007 6.007 0 0 1 6 6v6h2a2 2 0 0 1 2 2v12a2 2 0 0 1-2 2"/><path fill="currentColor" d="M20 14h-2V8A6 6 0 0 0 6 8v6H4a2 2 0 0 0-2 2v12a2 2 0 0 0 2 2h16a2 2 0 0 0 2-2V16a2 2 0 0 0-2-2M8 8a4 4 0 0 1 8 0v6H8Zm12 20H4V16h16Z"/>
    </symbol>
    <symbol id="copy-clipboard" viewBox="0 0 24 24">
        <g fill="none" stroke="currentColor" stroke-width="1.5"><path d="M6 11c0-2.828 0-4.243.879-5.121C7.757 5 9.172 5 12 5h3c2.828 0 4.243 0 5.121.879C21 6.757 21 8.172 21 11v5c0 2.828 0 4.243-.879 5.121C19.243 22 17.828 22 15 22h-3c-2.828 0-4.243 0-5.121-.879C6 20.243 6 18.828 6 16z" /><path d="M6 19a3 3 0 0 1-3-3v-6c0-3.771 0-5.657 1.172-6.828S7.229 2 11 2h4a3 3 0 0 1 3 3" opacity="0.5" /></g>
    </symbol>
    <symbol id="close" viewBox="0 0 48 48">
        <path fill="none" stroke="currentColor" stroke-linecap="round" stroke-linejoin="round" stroke-width="6" d="m8 8l32 32M8 40L40 8" />
    </symbol>
    <symbol id="minimize" viewBox="0 0 24 24">
        <path fill="none" stroke="currentColor" stroke-linecap="round" stroke-linejoin="round" stroke-width="1.5" d="m2 22l7-7m0 0H3.143M9 15v5.857M22 2l-7 7m0 0h5.857M15 9V3.143" />
    </symbol>
    <symbol id="logout" viewBox="0 0 24 24" fill="none" stroke="currentColor">
        <path stroke-linecap="round" stroke-linejoin="round" stroke-width="2" d="M17 16l4-4m0 0l-4-4m4 4H7m6 4v1a3 3 0 01-3 3H6a3 3 0 01-3-3V7a3 3 0 013-3h4a3 3 0 013 3v1" />
    </symbol>
    <symbol id="lock" viewBox="0 0 24 24" fill="none" stroke="currentColor">
        <path stroke-linecap="round" stroke-linejoin="round" stroke-width="2" d="M12 15v2m-6 4h12a2 2 0 002-2v-6a2 2 0 00-2-2H6a2 2 0 00-2 2v6a2 2 0 002 2zm10-10V7a4 4 0 00-8 0v4h8z" />
    </symbol>
    <symbol id="circle" viewBox="0 0 24 24" fill="none" stroke="currentColor" stroke-width="2">
        <circle cx="12" cy="12" r="10" /><path d="m9 12 2 2 4-4" />
    </symbol>
    <symbol id="menu" viewBox="0 0 24 24" fill="none" stroke="currentColor">
        <path stroke-linecap="round" stroke-linejoin="round" stroke-width="2" d="M4 6h16M4 12h16M4 18h16" />
    </symbol>
    <symbol id="magnifying-glass" viewBox="0 0 48 48">
        <g fill="currentColor"><path d="M18.748 12.816c-1.74.067-3.313.688-4.154 1.53a1 1 0 1 1-1.414-1.415c1.297-1.297 3.409-2.033 5.49-2.114c2.095-.081 4.382.492 5.984 2.094a1 1 0 0 1-1.415 1.414c-1.09-1.091-2.764-1.577-4.491-1.51" /><path fill-rule="evenodd" d="M27.384 28.936A12.95 12.95 0 0 1 19 32c-7.18 0-13-5.82-13-13S11.82 6 19 6s13 5.82 13 13c0 3.195-1.152 6.12-3.064 8.384L31.144 27l10.284 10.284c.763.763.763 2 0 2.762l-1.382 1.382c-.763.763-2 .763-2.762 0L27 31.144zM30 19c0 6.075-4.925 11-11 11S8 25.075 8 19S12.925 8 19 8s11 4.925 11 11m7.249 16.933l-6.785-6.785l-1.12.195l-.196 1.121l6.805 6.805zm.118 2.75l1.298 1.298l1.316-1.316l-1.318-1.318z" clip-rule="evenodd" /></g>
    </symbol>
    <symbol id="settings" viewBox="0 0 24 24" fill="none" stroke="currentColor">
        <path stroke-linecap="round" stroke-linejoin="round" stroke-width="2" d="M10.325 4.317c.426-1.756 2.924-1.756 3.35 0a1.724 1.724 0 002.573 1.066c1.543-.94 3.31.826 2.37 2.37a1.724 1.724 0 001.065 2.572c1.756.426 1.756 2.924 0 3.35a1.724 1.724 0 00-1.066 2.573c.94 1.543-.826 3.31-2.37 2.37a1.724 1.724 0 00-2.572 1.065c-.426 1.756-2.924 1.756-3.35 0a1.724 1.724 0 00-2.573-1.066c-1.543.94-3.31-.826-2.37-2.37a1.724 1.724 0 00-1.065-2.572c-1.756-.426-1.756-2.924 0-3.35a1.724 1.724 0 001.066-2.573c-.94-1.543.826-3.31 2.37-2.37.996.608 2.296.07 2.572-1.065z" />
        <path stroke-linecap="round" stroke-linejoin="round" stroke-width="2" d="M15 12a3 3 0 11-6 0 3 3 0 016 0z" />
    </symbol>
    <symbol id="run" viewBox="0 0 16 16">
        <path fill="currentColor" fill-rule="evenodd" d="M9.5 0a.5.5 0 0 0-.5.5v1.11a4.5 4.5 0 0 0-1.4.579l-.786-.786a.5.5 0 0 0-.707 0L5.4 2.11a.5.5 0 0 0 0 .707l.786.786a4.4 4.4 0 0 0-.579 1.4h-1.11a.5.5 0 0 0-.5.5v1a.5.5 0 0 0 .5.5h1.11c.114.502.312.973.579 1.4l-.786.786a.5.5 0 0 0 0 .707l.707.707a.5.5 0 0 0 .707 0l.786-.786c.423.267.893.465 1.4.579v1.11a.5.5 0 0 0 .5.5h1a.5.5 0 0 0 .5-.5v-1.11a4.5 4.5 0 0 0 1.4-.579l.786.786a.5.5 0 0 0 .707 0l.707-.707a.5.5 0 0 0 0-.707l-.786-.786c.266-.423.464-.893.578-1.4h1.11a.5.5 0 0 0 .5-.5v-1a.5.5 0 0 0-.5-.5h-1.11a4.6 4.6 0 0 0-.578-1.4l.786-.786a.5.5 0 0 0 0-.707l-.707-.707a.5.5 0 0 0-.707 0l-.786.786A4.4 4.4 0 0 0 11 1.61V.5a.5.5 0 0 0-.5-.5zm.5 8a2 2 0 1 0 .001-4.001A2 2 0 0 0 10 8" clip-rule="evenodd" /><path fill="currentColor" fill-rule="evenodd" d="M2.08 9.3a.5.5 0 0 0-.271.653l.168.406a2.6 2.6 0 0 0-.623.623l-.407-.168a.5.5 0 0 0-.653.271l-.064.154a.5.5 0 0 0 .271.653l.407.168c-.049.287-.05.585 0 .881l-.407.168a.5.5 0 0 0-.271.653l.064.154a.5.5 0 0 0 .653.271l.407-.168c.174.245.385.455.623.623l-.168.407a.5.5 0 0 0 .27.653l.155.064a.5.5 0 0 0 .653-.271l.168-.407c.287.049.585.05.88 0l.169.407a.5.5 0 0 0 .653.271l.154-.064a.5.5 0 0 0 .27-.653l-.167-.406c.245-.174.455-.385.623-.623l.407.168a.5.5 0 0 0 .653-.27l.064-.155a.5.5 0 0 0-.271-.653l-.407-.168c.049-.287.05-.585 0-.88l.407-.169a.5.5 0 0 0 .27-.653l-.063-.154a.5.5 0 0 0-.653-.27l-.407.167a2.6 2.6 0 0 0-.623-.623l.168-.407a.5.5 0 0 0-.271-.653l-.154-.064a.5.5 0 0 0-.653.271l-.168.407a2.6 2.6 0 0 0-.881 0l-.168-.407a.5.5 0 0 0-.653-.27zM3.5 14a1.5 1.5 0 1 0-.001-3.001A1.5 1.5 0 0 0 3.5 14" clip-rule="evenodd" />
    </symbol>
    <!-- bootstrap:sort-down -->
    <symbol id="sort" viewBox="0 0 16 16">
        <path fill="currentColor" d="M3 1.5a.5.5 0 0 0-1 0v11.8L.85 12.15a.5.5 0 0 0-.707.707l2 2a.5.5 0 0 0 .707 0l2-2a.5.5 0 0 0-.707-.707l-1.15 1.15V1.5zM7.5 12a.5.5 0 0 0 0 1h3a.5.5 0 0 0 0-1zm0-3a.5.5 0 0 0 0 1h4a.5.5 0 0 0 0-1zm0-3a.5.5 0 0 0 0 1h6a.5.5 0 0 0 0-1zm8-2a.5.5 0 0 0 0-1h-8a.5.5 0 0 0 0 1z"/>
    </symbol>
    <!-- material-symbols-light:download -->
    <symbol id="download-arrow" viewBox="0 0 24 24">
        <path fill="currentColor" d="m12 15.577l-3.539-3.538l.708-.72L11.5 13.65V5h1v8.65l2.33-2.33l.709.719zM6.616 19q-.691 0-1.153-.462T5 17.384v-2.423h1v2.423q0 .231.192.424t.423.192h10.77q.23 0 .423-.192t.192-.424v-2.423h1v2.423q0 .691-.462 1.153T17.384 19z"/>
    </symbol>
    <!-- pepicons-pencil:no-entry -->
    <symbol id="no-circle" viewBox="0 0 20 20" fill-rule="evenodd" clip-rule="evenodd">
        <path fill="currentColor" d="M10 3.5a6.5 6.5 0 1 0 0 13a6.5 6.5 0 0 0 0-13M2.5 10a7.5 7.5 0 1 1 15 0a7.5 7.5 0 0 1-15 0"/><path d="M15.304 4.697a.5.5 0 0 1 0 .707l-9.9 9.9a.5.5 0 1 1-.707-.707l9.9-9.9a.5.5 0 0 1 .707 0"/>
    </symbol>
    <!-- icon-park-outline:dot -->
    <symbol id="dot" viewBox="0 0 36 36">
        <circle cx="18" cy="18" r="18" fill="currentColor"/>
    </symbol>

</svg>
